HIERARCHY
ROOT Hips
{
	OFFSET	0.00	0.00	0.00
	CHANNELS 6 Xposition Yposition Zposition Zrotation Xrotation Yrotation
	JOINT Spine
	{
		OFFSET	 0.000000	 0.053172	 0.012782
		CHANNELS 3 Zrotation Xrotation Yrotation
		JOINT Chest
		{
			OFFSET	 0.000000	 0.115403	 0.003114
			CHANNELS 3 Zrotation Xrotation Yrotation
			JOINT UpperChest
			{
				OFFSET	-0.000000	 0.109921	-0.014956
				CHANNELS 3 Zrotation Xrotation Yrotation
				JOINT Neck
				{
					OFFSET	-0.000000	 0.135086	-0.039168
					CHANNELS 3 Zrotation Xrotation Yrotation
					JOINT Head
					{
						OFFSET	 0.000000	 0.074065	 0.009278
						CHANNELS 3 Zrotation Xrotation Yrotation
						JOINT LeftEye
						{
							OFFSET	 0.013099	 0.061527	 0.024023
							CHANNELS 3 Zrotation Xrotation Yrotation
							End Site
							{
								OFFSET	 0.013099	 0.061527	 0.024023
							}
						}
						JOINT RightEye
						{
							OFFSET	-0.013099	 0.061528	 0.024023
							CHANNELS 3 Zrotation Xrotation Yrotation
							End Site
							{
								OFFSET	-0.013099	 0.061528	 0.024023
							}
						}
					}
				}
				JOINT LeftShoulder
				{
					OFFSET	 0.022837	 0.107922	-0.030603
					CHANNELS 3 Zrotation Xrotation Yrotation
					JOINT LeftUpperArm
					{
						OFFSET	 0.086642	-0.012346	-0.000000
						CHANNELS 3 Zrotation Xrotation Yrotation
						JOINT LeftLowerArm
						{
							OFFSET	 0.224390	 0.000000	-0.000000
							CHANNELS 3 Zrotation Xrotation Yrotation
							JOINT LeftHand
							{
								OFFSET	 0.217424	 0.000002	 0.000381
								CHANNELS 3 Zrotation Xrotation Yrotation
								JOINT LeftIndexProximal
								{
									OFFSET	 0.066067	 0.007457	 0.019860
									CHANNELS 3 Zrotation Xrotation Yrotation
									JOINT LeftIndexIntermediate
									{
										OFFSET	 0.033559	-0.000000	-0.000653
										CHANNELS 3 Zrotation Xrotation Yrotation
										JOINT LeftIndexDistal
										{
											OFFSET	 0.020642	-0.000597	-0.000797
											CHANNELS 3 Zrotation Xrotation Yrotation
											End Site
											{
												OFFSET	 0.020642	-0.000597	-0.000797
											}
										}
									}
								}
								JOINT LeftLittleProximal
								{
									OFFSET	 0.061646	 0.007457	-0.029477
									CHANNELS 3 Zrotation Xrotation Yrotation
									JOINT LeftLittleIntermediate
									{
										OFFSET	 0.031724	 0.000000	 0.000000
										CHANNELS 3 Zrotation Xrotation Yrotation
										JOINT LeftLittleDistal
										{
											OFFSET	 0.018284	 0.000000	 0.000000
											CHANNELS 3 Zrotation Xrotation Yrotation
											End Site
											{
												OFFSET	 0.018284	 0.000000	 0.000000
											}
										}
									}
								}
								JOINT LeftMiddleProximal
								{
									OFFSET	 0.066967	 0.007457	 0.002068
									CHANNELS 3 Zrotation Xrotation Yrotation
									JOINT LeftMiddleIntermediate
									{
										OFFSET	 0.037388	 0.000000	-0.000000
										CHANNELS 3 Zrotation Xrotation Yrotation
										JOINT LeftMiddleDistal
										{
											OFFSET	 0.023065	 0.000000	 0.000000
											CHANNELS 3 Zrotation Xrotation Yrotation
											End Site
											{
												OFFSET	 0.023065	 0.000000	 0.000000
											}
										}
									}
								}
								JOINT LeftRingProximal
								{
									OFFSET	 0.066205	 0.007457	-0.013729
									CHANNELS 3 Zrotation Xrotation Yrotation
									JOINT LeftRingIntermediate
									{
										OFFSET	 0.034682	 0.000000	-0.000000
										CHANNELS 3 Zrotation Xrotation Yrotation
										JOINT LeftRingDistal
										{
											OFFSET	 0.020015	 0.000000	 0.000000
											CHANNELS 3 Zrotation Xrotation Yrotation
											End Site
											{
												OFFSET	 0.020015	 0.000000	 0.000000
											}
										}
									}
								}
								JOINT LeftThumbProximal
								{
									OFFSET	 0.003555	-0.010112	 0.016128
									CHANNELS 3 Zrotation Xrotation Yrotation
									JOINT LeftThumbIntermediate
									{
										OFFSET	 0.035690	-0.002084	 0.030575
										CHANNELS 3 Zrotation Xrotation Yrotation
										JOINT LeftThumbDistal
										{
											OFFSET	 0.022765	-0.000980	 0.017832
											CHANNELS 3 Zrotation Xrotation Yrotation
											End Site
											{
												OFFSET	 0.022765	-0.000980	 0.017832
											}
										}
									}
								}
							}
						}
					}
				}
				JOINT RightShoulder
				{
					OFFSET	-0.022837	 0.107922	-0.030603
					CHANNELS 3 Zrotation Xrotation Yrotation
					JOINT RightUpperArm
					{
						OFFSET	-0.086642	-0.012346	 0.000000
						CHANNELS 3 Zrotation Xrotation Yrotation
						JOINT RightLowerArm
						{
							OFFSET	-0.224390	 0.000000	 0.000000
							CHANNELS 3 Zrotation Xrotation Yrotation
							JOINT RightHand
							{
								OFFSET	-0.217424	 0.000002	 0.000381
								CHANNELS 3 Zrotation Xrotation Yrotation
								JOINT RightIndexProximal
								{
									OFFSET	-0.066067	 0.007457	 0.019860
									CHANNELS 3 Zrotation Xrotation Yrotation
									JOINT RightIndexIntermediate
									{
										OFFSET	-0.033559	-0.000000	-0.000653
										CHANNELS 3 Zrotation Xrotation Yrotation
										JOINT RightIndexDistal
										{
											OFFSET	-0.020642	-0.000597	-0.000797
											CHANNELS 3 Zrotation Xrotation Yrotation
											End Site
											{
												OFFSET	-0.020642	-0.000597	-0.000797
											}
										}
									}
								}
								JOINT RightLittleProximal
								{
									OFFSET	-0.061646	 0.007457	-0.029477
									CHANNELS 3 Zrotation Xrotation Yrotation
									JOINT RightLittleIntermediate
									{
										OFFSET	-0.031724	 0.000000	 0.000000
										CHANNELS 3 Zrotation Xrotation Yrotation
										JOINT RightLittleDistal
										{
											OFFSET	-0.018284	 0.000000	 0.000000
											CHANNELS 3 Zrotation Xrotation Yrotation
											End Site
											{
												OFFSET	-0.018284	 0.000000	 0.000000
											}
										}
									}
								}
								JOINT RightMiddleProximal
								{
									OFFSET	-0.066967	 0.007457	 0.002068
									CHANNELS 3 Zrotation Xrotation Yrotation
									JOINT RightMiddleIntermediate
									{
										OFFSET	-0.037388	 0.000000	 0.000000
										CHANNELS 3 Zrotation Xrotation Yrotation
										JOINT RightMiddleDistal
										{
											OFFSET	-0.023065	 0.000000	 0.000000
											CHANNELS 3 Zrotation Xrotation Yrotation
											End Site
											{
												OFFSET	-0.023065	 0.000000	 0.000000
											}
										}
									}
								}
								JOINT RightRingProximal
								{
									OFFSET	-0.066205	 0.007457	-0.013729
									CHANNELS 3 Zrotation Xrotation Yrotation
									JOINT RightRingIntermediate
									{
										OFFSET	-0.034682	 0.000000	 0.000000
										CHANNELS 3 Zrotation Xrotation Yrotation
										JOINT RightRingDistal
										{
											OFFSET	-0.020015	 0.000000	 0.000000
											CHANNELS 3 Zrotation Xrotation Yrotation
											End Site
											{
												OFFSET	-0.020015	 0.000000	 0.000000
											}
										}
									}
								}
								JOINT RightThumbProximal
								{
									OFFSET	-0.003555	-0.010112	 0.016128
									CHANNELS 3 Zrotation Xrotation Yrotation
									JOINT RightThumbIntermediate
									{
										OFFSET	-0.035690	-0.002084	 0.030575
										CHANNELS 3 Zrotation Xrotation Yrotation
										JOINT RightThumbDistal
										{
											OFFSET	-0.022765	-0.000980	 0.017832
											CHANNELS 3 Zrotation Xrotation Yrotation
											End Site
											{
												OFFSET	-0.022765	-0.000980	 0.017832
											}
										}
									}
								}
							}
						}
					}
				}
			}
		}
	}
	JOINT LeftUpperLeg
	{
		OFFSET	 0.078678	-0.040616	-0.003734
		CHANNELS 3 Zrotation Xrotation Yrotation
		JOINT LeftLowerLeg
		{
			OFFSET	 0.000000	-0.358659	-0.007506
			CHANNELS 3 Zrotation Xrotation Yrotation
			JOINT LeftFoot
			{
				OFFSET	 0.000000	-0.418700	-0.025144
				CHANNELS 3 Zrotation Xrotation Yrotation
				JOINT LeftToes
				{
					OFFSET	 0.000000	-0.063430	 0.111347
					CHANNELS 3 Zrotation Xrotation Yrotation
					End Site
					{
						OFFSET	 0.000000	-0.063430	 0.111347
					}
				}
			}
		}
	}
	JOINT RightUpperLeg
	{
		OFFSET	-0.078678	-0.040616	-0.003734
		CHANNELS 3 Zrotation Xrotation Yrotation
		JOINT RightLowerLeg
		{
			OFFSET	 0.000000	-0.358659	-0.007506
			CHANNELS 3 Zrotation Xrotation Yrotation
			JOINT RightFoot
			{
				OFFSET	 0.000000	-0.418700	-0.025144
				CHANNELS 3 Zrotation Xrotation Yrotation
				JOINT RightToes
				{
					OFFSET	 0.000000	-0.063430	 0.111347
					CHANNELS 3 Zrotation Xrotation Yrotation
					End Site
					{
						OFFSET	 0.000000	-0.063430	 0.111347
					}
				}
			}
		}
	}
}
MOTION
Frames:    4
Frame Time: 0.03333334
-0.015788	 0.909343	 0.006212	-3.221372	 3.691108	 2.603153	 4.816974	 0.964457	 12.945890	 3.603459	 10.290810	 0.476725	 0.000000	 0.000000	 0.000000	-0.895915	-14.511140	-0.560698	 4.116734	-0.864467	-1.840374	 0.000000	 0.000000	 0.000000	 0.000000	 0.000000	 0.000000	-3.302159	-15.841260	 6.203754	-68.049660	 29.248090	-9.423860	-20.637020	 16.306660	-93.034090	-8.974671	 30.496180	 0.765050	 0.000000	 0.000000	 0.000000	 0.000000	 0.000000	 0.000000	 0.000000	 0.000000	 0.000000	 0.000000	 0.000000	 0.000000	 0.000000	 0.000000	 0.000000	 0.000000	 0.000000	 0.000000	 0.000000	 0.000000	 0.000000	 0.000000	 0.000000	 0.000000	 0.000000	 0.000000	 0.000000	 0.000000	 0.000000	 0.000000	 0.000000	 0.000000	 0.000000	 0.000000	 0.000000	 0.000000	 0.000000	 0.000000	 0.000000	 0.000000	 0.000000	 0.000000	 0.000000	 0.000000	 0.000000	-22.611880	-14.803450	-12.556160	 30.030700	 22.987380	 85.380750	 60.765550	-78.722880	 127.936900	-4.771490	 25.402500	 23.385310	 0.000000	 0.000000	 0.000000	 0.000000	 0.000000	 0.000000	 0.000000	 0.000000	 0.000000	 0.000000	 0.000000	 0.000000	 0.000000	 0.000000	 0.000000	 0.000000	 0.000000	 0.000000	 0.000000	 0.000000	 0.000000	 0.000000	 0.000000	 0.000000	 0.000000	 0.000000	 0.000000	 0.000000	 0.000000	 0.000000	 0.000000	 0.000000	 0.000000	 0.000000	 0.000000	 0.000000	 0.000000	 0.000000	 0.000000	 0.000000	 0.000000	 0.000000	 0.000000	 0.000000	 0.000000	-0.447036	-17.021220	-0.121917	 11.277300	 43.744700	-16.434440	 4.616254	-15.365170	 14.032490	 0.000000	 0.000000	 0.000000	-3.497984	-13.513400	-0.747089	 13.018150	 36.554020	-21.790430	 0.271343	-3.100919	 2.377585	 0.000000	 0.000000	 0.000000
-0.015764	 0.909791	 0.006968	-3.220967	 3.609371	 3.001092	 4.826364	 0.915527	 13.138960	 3.582636	 10.228170	 0.480676	 0.000000	 0.000000	 0.000000	-0.915948	-14.453960	-0.566220	 4.091488	-0.937481	-2.414041	 0.000000	 0.000000	 0.000000	 0.000000	 0.000000	 0.000000	-3.184137	-15.810850	 6.302164	-68.271630	 29.200590	-9.292026	-20.672200	 16.733990	-93.094640	-9.112669	 31.261550	 1.222237	 0.000000	 0.000000	 0.000000	 0.000000	 0.000000	 0.000000	 0.000000	 0.000000	 0.000000	 0.000000	 0.000000	 0.000000	 0.000000	 0.000000	 0.000000	 0.000000	 0.000000	 0.000000	 0.000000	 0.000000	 0.000000	 0.000000	 0.000000	 0.000000	 0.000000	 0.000000	 0.000000	 0.000000	 0.000000	 0.000000	 0.000000	 0.000000	 0.000000	 0.000000	 0.000000	 0.000000	 0.000000	 0.000000	 0.000000	 0.000000	 0.000000	 0.000000	 0.000000	 0.000000	 0.000000	-22.481790	-14.783870	-12.590800	 29.920680	 22.453840	 85.071270	 60.685340	-78.574170	 128.055400	-5.180557	 25.427350	 23.453980	 0.000000	 0.000000	 0.000000	 0.000000	 0.000000	 0.000000	 0.000000	 0.000000	 0.000000	 0.000000	 0.000000	 0.000000	 0.000000	 0.000000	 0.000000	 0.000000	 0.000000	 0.000000	 0.000000	 0.000000	 0.000000	 0.000000	 0.000000	 0.000000	 0.000000	 0.000000	 0.000000	 0.000000	 0.000000	 0.000000	 0.000000	 0.000000	 0.000000	 0.000000	 0.000000	 0.000000	 0.000000	 0.000000	 0.000000	 0.000000	 0.000000	 0.000000	 0.000000	 0.000000	 0.000000	-0.439028	-16.879430	-0.118687	 11.418900	 43.591220	-16.680940	 4.596120	-15.424440	 13.932850	 0.000000	 0.000000	 0.000000	-3.575217	-13.219090	-0.745648	 13.122580	 36.345540	-22.057190	 0.318474	-3.581238	 2.600163	 0.000000	 0.000000	 0.000000
-0.016152	 0.910558	 0.007931	-3.196422	 3.520832	 3.507366	 4.813217	 0.899783	 13.414580	 3.539932	 10.197890	 0.483843	 0.000000	 0.000000	 0.000000	-0.980537	-14.297580	-0.580032	 3.945027	-1.064333	-3.040479	 0.000000	 0.000000	 0.000000	 0.000000	 0.000000	 0.000000	-2.937630	-15.798360	 6.666328	-68.562900	 29.302420	-9.214154	-20.662030	 16.834390	-93.445050	-9.283322	 31.731890	 1.740894	 0.000000	 0.000000	 0.000000	 0.000000	 0.000000	 0.000000	 0.000000	 0.000000	 0.000000	 0.000000	 0.000000	 0.000000	 0.000000	 0.000000	 0.000000	 0.000000	 0.000000	 0.000000	 0.000000	 0.000000	 0.000000	 0.000000	 0.000000	 0.000000	 0.000000	 0.000000	 0.000000	 0.000000	 0.000000	 0.000000	 0.000000	 0.000000	 0.000000	 0.000000	 0.000000	 0.000000	 0.000000	 0.000000	 0.000000	 0.000000	 0.000000	 0.000000	 0.000000	 0.000000	 0.000000	-22.246770	-14.787990	-12.847320	 29.711310	 22.288100	 84.803790	 58.128020	-77.892000	 125.480200	-5.139770	 24.853870	 23.818110	 0.000000	 0.000000	 0.000000	 0.000000	 0.000000	 0.000000	 0.000000	 0.000000	 0.000000	 0.000000	 0.000000	 0.000000	 0.000000	 0.000000	 0.000000	 0.000000	 0.000000	 0.000000	 0.000000	 0.000000	 0.000000	 0.000000	 0.000000	 0.000000	 0.000000	 0.000000	 0.000000	 0.000000	 0.000000	 0.000000	 0.000000	 0.000000	 0.000000	 0.000000	 0.000000	 0.000000	 0.000000	 0.000000	 0.000000	 0.000000	 0.000000	 0.000000	 0.000000	 0.000000	 0.000000	-0.297903	-16.658290	-0.079427	 11.339730	 43.129560	-16.708630	 4.520889	-15.482650	 13.673690	 0.000000	 0.000000	 0.000000	-3.664141	-12.763950	-0.735708	 13.217300	 36.047950	-22.355710	 0.408277	-4.531833	 2.937247	 0.000000	 0.000000	 0.000000
-0.017105	 0.911401	 0.008956	-3.139735	 3.526047	 3.700535	 4.742476	 0.949052	 13.354370	 3.488176	 10.266180	 0.487172	 0.000000	 0.000000	 0.000000	-1.130048	-14.021330	-0.613266	 3.700528	-1.269962	-3.051586	 0.000000	 0.000000	 0.000000	 0.000000	 0.000000	 0.000000	-2.715297	-15.832940	 7.362525	-68.620540	 29.647980	-9.332475	-20.502800	 15.754190	-94.584260	-9.633185	 30.902450	 1.841603	 0.000000	 0.000000	 0.000000	 0.000000	 0.000000	 0.000000	 0.000000	 0.000000	 0.000000	 0.000000	 0.000000	 0.000000	 0.000000	 0.000000	 0.000000	 0.000000	 0.000000	 0.000000	 0.000000	 0.000000	 0.000000	 0.000000	 0.000000	 0.000000	 0.000000	 0.000000	 0.000000	 0.000000	 0.000000	 0.000000	 0.000000	 0.000000	 0.000000	 0.000000	 0.000000	 0.000000	 0.000000	 0.000000	 0.000000	 0.000000	 0.000000	 0.000000	 0.000000	 0.000000	 0.000000	-22.088480	-14.832100	-13.461220	 29.583540	 23.324730	 84.905810	 52.301080	-75.993350	 119.382900	-4.109489	 23.091290	 24.178450	 0.000000	 0.000000	 0.000000	 0.000000	 0.000000	 0.000000	 0.000000	 0.000000	 0.000000	 0.000000	 0.000000	 0.000000	 0.000000	 0.000000	 0.000000	 0.000000	 0.000000	 0.000000	 0.000000	 0.000000	 0.000000	 0.000000	 0.000000	 0.000000	 0.000000	 0.000000	 0.000000	 0.000000	 0.000000	 0.000000	 0.000000	 0.000000	 0.000000	 0.000000	 0.000000	 0.000000	 0.000000	 0.000000	 0.000000	 0.000000	 0.000000	 0.000000	 0.000000	 0.000000	 0.000000	 0.074396	-16.376470	 0.019480	 10.855600	 42.516160	-16.199360	 4.255173	-15.316920	 13.001550	 0.000000	 0.000000	 0.000000	-3.736002	-12.372130	-0.725093	 13.142570	 35.935230	-22.294320	 0.477156	-5.154311	 3.185247	 0.000000	 0.000000	 0.000000
